<?xml version="1.0"?>
<svg xmlns="http://www.w3.org/2000/svg" height="512px" viewBox="0 -24 480 480" width="512px" class=""><g><path d="m480 80c-.039062-35.328125-28.671875-63.960938-64-64h-32c-17.671875 0-32 14.328125-32 32v16c0 4.417969 3.582031 8 8 8s8-3.582031 8-8v-16c0-8.835938 7.164062-16 16-16v32c0 4.417969 3.582031 8 8 8s8-3.582031 8-8v-32h16v24c0 4.417969 3.582031 8 8 8s8-3.582031 8-8v-21.199219c19.160156 6.773438 31.976562 24.878907 32 45.199219v32h-104c-2.882812 0-5.542969 1.550781-6.960938 4.0625-1.421874 2.507812-1.378906 5.585938.105469 8.058594l23 38.335937 14.808594 222.109375c.882813 13.1875 11.832031 23.429688 25.046875 23.429688s24.164062-10.242188 25.046875-23.429688l14.808594-222.109375 23-38.335937c.128906-.21875.183593-.457032.296875-.671875.113281-.21875.199218-.441407.289062-.679688.34375-.871093.53125-1.792969.558594-2.730469zm-38.855469 75.878906c-.066406.105469-.066406.234375-.121093.335938-.199219.429687-.359376.878906-.472657 1.335937-.210937.515625-.363281 1.050781-.453125 1.601563 0 .105468-.074218.183594-.082031.289062l-14.9375 224.070313c-.34375 4.757812-4.304687 8.445312-9.078125 8.445312s-8.734375-3.6875-9.078125-8.445312l-14.371094-215.511719h23.449219c4.417969 0 8-3.582031 8-8s-3.582031-8-8-8h-27.472656l-14.398438-24h83.734375zm0 0" data-original="#000000" class="active-path" data-old_color="#4e3f42" fill="#4e3f42"/><path d="m432 88c0 4.417969-3.582031 8-8 8s-8-3.582031-8-8 3.582031-8 8-8 8 3.582031 8 8zm0 0" data-original="#000000" class="active-path" data-old_color="#4e3f42" fill="#4e3f42"/><path d="m296 0h-272c-13.253906 0-24 10.746094-24 24v160c.046875 10.8125 7.316406 20.261719 17.761719 23.070312-2.347657 5.722657-2.347657 12.136719 0 17.859376-10.445313 2.808593-17.714844 12.257812-17.761719 23.070312v40c0 4.417969 3.582031 8 8 8s8-3.582031 8-8v-40c0-4.417969 3.582031-8 8-8h272c4.417969 0 8 3.582031 8 8v160c0 4.417969-3.582031 8-8 8h-272c-4.417969 0-8-3.582031-8-8v-40c0-4.417969-3.582031-8-8-8s-8 3.582031-8 8v40c0 13.253906 10.746094 24 24 24h272c13.253906 0 24-10.746094 24-24v-160c-.046875-10.8125-7.316406-20.261719-17.761719-23.070312 2.347657-5.722657 2.347657-12.136719 0-17.859376 10.445313-2.808593 17.714844-12.257812 17.761719-23.070312v-160c0-13.253906-10.746094-24-24-24zm-264 216c0-4.417969 3.582031-8 8-8h24v16h-24c-4.417969 0-8-3.582031-8-8zm48 8v-16h16v16zm128-16v16h-96v-16zm16 16v-16h16v16zm32 0v-16h24c4.417969 0 8 3.582031 8 8s-3.582031 8-8 8zm48-40c0 4.417969-3.582031 8-8 8h-272c-4.417969 0-8-3.582031-8-8v-160c0-4.417969 3.582031-8 8-8h272c4.417969 0 8 3.582031 8 8zm0 0" data-original="#000000" class="active-path" data-old_color="#4e3f42" fill="#4e3f42"/><path d="m280 48c4.417969 0 8-3.582031 8-8s-3.582031-8-8-8h-240c-4.417969 0-8 3.582031-8 8v128c0 4.417969 3.582031 8 8 8h240c4.417969 0 8-3.582031 8-8s-3.582031-8-8-8h-189.097656l112-112zm-178.910156 0-53.089844 53.089844v-53.089844zm-32.800782 112h-20.289062v-36.289062l75.710938-75.710938h56.570312zm0 0" data-original="#000000" class="active-path" data-old_color="#4e3f42" fill="#4e3f42"/><path d="m48 320h48c4.417969 0 8-3.582031 8-8v-48c0-4.417969-3.582031-8-8-8h-48c-4.417969 0-8 3.582031-8 8v48c0 4.417969 3.582031 8 8 8zm8-48h32v32h-32zm0 0" data-original="#000000" class="active-path" data-old_color="#4e3f42" fill="#4e3f42"/><path d="m136 256c-4.417969 0-8 3.582031-8 8v48c0 4.417969 3.582031 8 8 8h48c4.417969 0 8-3.582031 8-8v-48c0-4.417969-3.582031-8-8-8s-8 3.582031-8 8v40h-32v-40c0-4.417969-3.582031-8-8-8zm0 0" data-original="#000000" class="active-path" data-old_color="#4e3f42" fill="#4e3f42"/><path d="m224 320h48c4.417969 0 8-3.582031 8-8v-48c0-4.417969-3.582031-8-8-8h-48c-4.417969 0-8 3.582031-8 8v48c0 4.417969 3.582031 8 8 8zm8-48h32v32h-32zm0 0" data-original="#000000" class="active-path" data-old_color="#4e3f42" fill="#4e3f42"/><path d="m48 384c-4.417969 0-8 3.582031-8 8s3.582031 8 8 8h48c4.417969 0 8-3.582031 8-8v-48c0-4.417969-3.582031-8-8-8h-48c-4.417969 0-8 3.582031-8 8s3.582031 8 8 8h40v32zm0 0" data-original="#000000" class="active-path" data-old_color="#4e3f42" fill="#4e3f42"/><path d="m128 392c0 4.417969 3.582031 8 8 8h48c4.417969 0 8-3.582031 8-8v-48c0-4.417969-3.582031-8-8-8h-48c-4.417969 0-8 3.582031-8 8zm16-40h32v32h-32zm0 0" data-original="#000000" class="active-path" data-old_color="#4e3f42" fill="#4e3f42"/><path d="m216 392c0 4.417969 3.582031 8 8 8h48c4.417969 0 8-3.582031 8-8v-48c0-4.417969-3.582031-8-8-8s-8 3.582031-8 8v40h-32v-40c0-4.417969-3.582031-8-8-8s-8 3.582031-8 8zm0 0" data-original="#000000" class="active-path" data-old_color="#4e3f42" fill="#4e3f42"/></g> </svg>
