<?xml version="1.0" encoding="utf-8"?>
<!-- Generator: Adobe Illustrator 23.0.1, SVG Export Plug-In . SVG Version: 6.00 Build 0)  -->
<svg version="1.1" id="Camada_1" xmlns="http://www.w3.org/2000/svg" xmlns:xlink="http://www.w3.org/1999/xlink" x="0px" y="0px"
	 viewBox="0 0 1366 768" style="enable-background:new 0 0 1366 768;" xml:space="preserve">
<style type="text/css">
	.st0{fill:#E80C54;}
	.st1{fill:#E8005A;}
	.st2{fill:#C41A5B;}
	.st3{font-family:'MyriadPro-Regular';}
	.st4{font-size:38px;}
</style>
<g>
	<g>
		
			<rect x="594.44" y="303.47" transform="matrix(0.8902 0.4556 -0.4556 0.8902 209.1167 -243.7046)" class="st0" width="31.29" height="16.91"/>
		<polygon class="st0" points="624.94,307.96 650.84,257.35 623.58,260.98 604.81,297.66 		"/>
	</g>
	<path class="st0" d="M588.74,312.73l-22.26,43.5c0,0,3.12,4.5,14.47,10.31c11.35,5.81,18.89,6.77,18.89,6.77l22.26-43.5
		L588.74,312.73z"/>
</g>
<g>
	<g>
		<path class="st1" d="M596.08,395.71c14.94-23.37,27.3-48.2,39.64-73c11.72-23.55,23.21-47.53,27.84-73.64c-0.96,0-1.93,0-2.89,0
			c16.7,46.18,33.4,92.37,50.09,138.55c0.65,1.8,3.55,1.02,2.89-0.8c-16.7-46.18-33.4-92.37-50.09-138.55
			c-0.45-1.25-2.61-1.59-2.89,0c-4.7,26.46-16.46,50.68-28.34,74.54c-12.08,24.26-24.22,48.53-38.83,71.38
			C592.44,395.83,595.04,397.33,596.08,395.71L596.08,395.71z"/>
	</g>
</g>
<g>
	<path class="st2" d="M630.61,330.91c20.29,0,40.58,0,60.87,0"/>
	<g>
		<path class="st2" d="M630.61,332.41c20.29,0,40.58,0,60.87,0c1.93,0,1.93-3,0-3c-20.29,0-40.58,0-60.87,0
			C628.68,329.41,628.68,332.41,630.61,332.41L630.61,332.41z"/>
	</g>
</g>
<text transform="matrix(1 0 0 1 682.8691 302.1177)" class="st1 st3 st4">driana</text>
<text transform="matrix(1 0 0 1 711.8799 330.96)" class="st3 st4">Cabelereira</text>
</svg>
